<svg width="24" height="24" viewBox="0 0 24 24" fill="none" xmlns="http://www.w3.org/2000/svg">
  <g transform="translate(3.75, 2.25)">
    <path d="M5.75 9.25C5.75 9.91304 5.48661 10.5489 5.01777 11.0178C4.54893 11.4866 3.91304 11.75 3.25 11.75C2.58696 11.75 1.95107 11.4866 1.48223 11.0178C1.01339 10.5489 0.75 9.91304 0.75 9.25C0.75 8.58696 1.01339 7.95107 1.48223 7.48223C1.95107 7.01339 2.58696 6.75 3.25 6.75C3.91304 6.75 4.54893 7.01339 5.01777 7.48223C5.48661 7.95107 5.75 8.58696 5.75 9.25Z" stroke="white" stroke-width="1.5"/>
    <path opacity="0.5" d="M11.07 14.552L5.75 11.04M11.17 4.59L5.85 8.102" stroke="white" stroke-width="1.5" stroke-linecap="round"/>
    <path d="M15.75 16.25C15.75 16.913 15.4866 17.5489 15.0178 18.0178C14.5489 18.4866 13.913 18.75 13.25 18.75C12.587 18.75 11.9511 18.4866 11.4822 18.0178C11.0134 17.5489 10.75 16.913 10.75 16.25C10.75 15.587 11.0134 14.9511 11.4822 14.4822C11.9511 14.0134 12.587 13.75 13.25 13.75C13.913 13.75 14.5489 14.0134 15.0178 14.4822C15.4866 14.9511 15.75 15.587 15.75 16.25ZM15.75 3.25C15.75 3.91304 15.4866 4.54893 15.0178 5.01777C14.5489 5.48661 13.913 5.75 13.25 5.75C12.587 5.75 11.9511 5.48661 11.4822 5.01777C11.0134 4.54893 10.75 3.91304 10.75 3.25C10.75 2.58696 11.0134 1.95107 11.4822 1.48223C11.9511 1.01339 12.587 0.75 13.25 0.75C13.913 0.75 14.5489 1.01339 15.0178 1.48223C15.4866 1.95107 15.75 2.58696 15.75 3.25Z" stroke="white" stroke-width="1.5"/>
  </g>
</svg>
