<svg width="24" height="24" viewBox="0 0 24 24" fill="none" xmlns="http://www.w3.org/2000/svg">
  <!-- top bar -->
  <path opacity="0.4" d="M2.967 0H9.947C10.179 0 10.357 1.05239e-07 10.513 0.0150001C11.621 0.124 12.528 0.79 12.913 1.687H0C0.384 0.79 1.291 0.124 2.399 0.0150001C2.556 1.05239e-07 2.734 0 2.967 0Z" fill="white" transform="translate(5.54, 2)"/>
  <!-- middle bar -->
  <path opacity="0.7" d="M2.934 0C1.544 0 0.404 0.84 0.023 1.953L0 2.023C0.398 1.903 0.812 1.824 1.232 1.77C2.312 1.632 3.678 1.632 5.264 1.632H12.156C13.742 1.632 15.107 1.632 16.188 1.77C16.6047 1.82187 17.0166 1.90647 17.42 2.023L17.397 1.953C17.017 0.839 15.876 0 14.485 0H2.934Z" fill="white" transform="translate(3.29, 4.72)"/>
  <!-- main body -->
  <path fill-rule="evenodd" clip-rule="evenodd" d="M13.3283 0H6.67233C3.29833 0 1.61033 4.76837e-07 0.662329 0.987C-0.285671 1.974 -0.0626707 3.498 0.384329 6.547L0.806329 9.439C1.15633 11.83 1.33133 13.026 2.22833 13.742C3.12633 14.458 4.44833 14.458 7.09533 14.458H12.9053C15.5513 14.458 16.8753 14.458 17.7723 13.742C18.6693 13.026 18.8443 11.83 19.1943 9.439L19.6163 6.547C20.0633 3.498 20.2863 1.974 19.3383 0.987C18.3903 4.76837e-07 16.7023 0 13.3283 0ZM12.5813 8.252C13.1403 7.906 13.1403 7.01 12.5813 6.664L9.21033 4.574C8.66733 4.237 8.00033 4.675 8.00033 5.368V9.548C8.00033 10.241 8.66733 10.678 9.21033 10.342L12.5813 8.252Z" fill="white" transform="translate(2, 7.54)"/>
</svg>
