<?xml version="1.0" encoding="UTF-8"?>
<svg xmlns="http://www.w3.org/2000/svg" width="24" height="24" viewBox="0 0 24 24"><defs><clipPath id="clip_1"><path d="M0,0h24v24h-24z" /></clipPath><clipPath id="clip_2"><path d="M0,2h20v20h-20z" /></clipPath></defs><g clip-path="url(#clip_1)"><g clip-path="url(#clip_2)"><path d="M18.376,3.774L0.657,10.643C-0.056,10.962 -0.297,11.603 0.485,11.95L5.031,13.403L16.022,6.575C16.622,6.146 17.236,6.261 16.707,6.732L7.268,15.323L6.971,18.959C7.246,19.52 7.749,19.523 8.069,19.244L10.681,16.76L15.154,20.127C16.193,20.745 16.758,20.346 16.982,19.213L19.915,5.249C20.22,3.854 19.701,3.24 18.376,3.774Z" fill="#ffffff" /></g></g></svg>
